<svg width="50" height="50" viewBox="0 0 11 11" fill="none" xmlns="http://www.w3.org/2000/svg">
<path d="M1.64 0.27L5.5 4.13L9.34 0.29C9.42482 0.199717 9.527 0.127495 9.64041 0.0776622C9.75382 0.0278298 9.87613 0.00141434 10 0C10.2652 0 10.5196 0.105357 10.7071 0.292893C10.8946 0.48043 11 0.734784 11 1C11.0023 1.1226 10.9796 1.24439 10.9332 1.35788C10.8867 1.47138 10.8176 1.57419 10.73 1.66L6.84 5.5L10.73 9.39C10.8948 9.55124 10.9915 9.76959 11 10C11 10.2652 10.8946 10.5196 10.7071 10.7071C10.5196 10.8946 10.2652 11 10 11C9.87255 11.0053 9.7454 10.984 9.62662 10.9375C9.50783 10.8911 9.40001 10.8204 9.31 10.73L5.5 6.87L1.65 10.72C1.56551 10.8073 1.46456 10.8769 1.353 10.925C1.24144 10.9731 1.12146 10.9986 1 11C0.734784 11 0.48043 10.8946 0.292893 10.7071C0.105357 10.5196 1.05181e-07 10.2652 1.05181e-07 10C-0.00233139 9.8774 0.0204155 9.75561 0.066845 9.64212C0.113275 9.52862 0.182407 9.42581 0.27 9.34L4.16 5.5L0.27 1.61C0.105185 1.44876 0.00853972 1.23041 1.05181e-07 1C1.05181e-07 0.734784 0.105357 0.48043 0.292893 0.292893C0.48043 0.105357 0.734784 0 1 0C1.24 0.003 1.47 0.1 1.64 0.27Z" fill="#901C1C"/>
</svg>
